# File created by Blade
# Date/Time:  Wed Jan 21 17:21:31 2015
# Frame Rate: 120.000 fps
#------------------------------------------------------
:FULLY-SPECIFIED
:DEGREES
1455
root 19.718544 35.321639 -22.013284 -180.045234 -1.002873 -179.384398
Spine -9.507017 2.666229 0.356366
Head 5.960597 -3.148766 -2.152662
LeftShoulder -12.950878 -32.504503 21.472530
LeftArm 0.833147 1.851711 -5.440756
LeftForeArm 13.343756 0.000000 -1.630835
LeftHand -9.426812 -0.000000 -0.643044
LeftHandThumb1 -26.253704 0.000000 33.147579
RightShoulder -11.755756 -1.350310 -15.103136
RightArm -1.039698 37.093962 8.172317
RightForeArm -35.723341 -0.000000 5.328435
RightHand -8.631997 -0.000000 4.899104
RightHandThumb1 -24.326973 -0.000000 -32.862282
LeftUpLeg 9.677172 6.624481 4.384812
LeftLeg -5.404370 -0.000000 0.000000
LeftFoot -20.300273 25.074969 -12.617583
LeftToeBase 25.369342 -0.000000 -0.000000
RightUpLeg 7.613022 -14.640206 -5.347050
RightLeg -1.719084 -0.000000 0.000000
RightFoot -20.702309 -23.353394 16.635434
RightToeBase 26.260940 -0.000000 -0.000000
1456
root 19.732068 35.317734 -22.036336 -180.059548 -0.971890 -179.365314
Spine -9.526817 2.685966 0.335459
Head 6.000502 -3.158034 -2.138301
LeftShoulder -12.957609 -32.437673 21.437975
LeftArm 1.008101 1.955879 -5.389345
LeftForeArm 13.090622 -0.000000 -1.750384
LeftHand -9.233441 -0.000000 -0.599317
LeftHandThumb1 -26.253704 0.000000 33.147579
RightShoulder -11.754169 -1.409468 -15.055502
RightArm -0.929485 37.045683 8.224410
RightForeArm -35.661397 0.000000 5.359580
RightHand -8.754592 -0.000000 4.839739
RightHandThumb1 -24.326973 -0.000000 -32.862282
LeftUpLeg 9.739315 6.629783 4.428211
LeftLeg -5.410274 -0.000000 0.000000
LeftFoot -20.355821 25.096355 -12.621207
LeftToeBase 25.415641 -0.000000 -0.000000
RightUpLeg 7.710440 -14.658812 -5.330514
RightLeg -1.808739 -0.000000 0.000000
RightFoot -20.680144 -23.292154 16.610804
RightToeBase 26.265413 -0.000000 -0.000000
1457
root 19.745275 35.313888 -22.059088 -180.077835 -0.951822 -179.355107
Spine -9.547358 2.677383 0.308466
Head 6.099469 -3.183015 -2.175560
LeftShoulder -12.982690 -32.405584 21.502423
LeftArm 1.028360 1.891246 -5.439881
LeftForeArm 13.323798 0.000000 -1.653372
LeftHand -9.360240 -0.000000 -0.543094
LeftHandThumb1 -26.253704 0.000000 33.147579
RightShoulder -11.711438 -1.422483 -15.010291
RightArm -0.883673 37.014268 8.215418
RightForeArm -35.581648 -0.000000 5.331958
RightHand -8.643633 -0.000000 4.733191
RightHandThumb1 -24.326973 -0.000000 -32.862282
LeftUpLeg 9.804143 6.634285 4.464388
LeftLeg -5.420696 -0.000000 0.000000
LeftFoot -20.386265 25.115177 -12.636720
LeftToeBase 25.443427 -0.000000 -0.000000
RightUpLeg 7.826545 -14.636571 -5.318796
RightLeg -1.927343 -0.000000 0.000000
RightFoot -20.661430 -23.313617 16.621962
RightToeBase 26.428538 -0.000000 -0.000000
1458
root 19.759962 35.310405 -22.082226 -180.096542 -0.935445 -179.339737
Spine -9.562395 2.670968 0.286217
Head 6.152875 -3.199546 -2.176377
LeftShoulder -12.981033 -32.383345 21.508666
LeftArm 1.088731 1.889478 -5.418203
LeftForeArm 13.339905 -0.000000 -1.637072
LeftHand -9.407897 0.000000 -0.528582
LeftHandThumb1 -26.253704 0.000000 33.147579
RightShoulder -11.710748 -1.451589 -14.960622
RightArm -0.772218 37.098168 8.247966
RightForeArm -35.556611 0.000000 5.314591
RightHand -8.615640 -0.000000 4.725901
RightHandThumb1 -24.326973 -0.000000 -32.862282
LeftUpLeg 9.870312 6.634667 4.507591
LeftLeg -5.433256 -0.000000 0.000000
LeftFoot -20.415887 25.138549 -12.659553
LeftToeBase 25.365395 -0.000000 -0.000000
RightUpLeg 7.933644 -14.611949 -5.296935
RightLeg -2.026551 -0.000000 0.000000
RightFoot -20.673490 -23.290511 16.620104
RightToeBase 26.256482 -0.000000 -0.000000
1459
root 19.773832 35.307138 -22.107833 -180.131904 -0.907584 -179.322430
Spine -9.558087 2.706593 0.263142
Head 6.205648 -3.243112 -2.162054
LeftShoulder -12.941880 -32.379317 21.492322
LeftArm 1.143836 1.884360 -5.385381
LeftForeArm 13.370774 -0.000000 -1.651801
LeftHand -9.390129 0.000000 -0.586505
LeftHandThumb1 -26.253704 0.000000 33.147579
RightShoulder -11.734588 -1.485079 -14.938811
RightArm -0.686154 37.087425 8.331431
RightForeArm -35.712168 -0.000000 5.319028
RightHand -8.671265 -0.000000 4.616736
RightHandThumb1 -24.326973 -0.000000 -32.862282
LeftUpLeg 9.961376 6.647037 4.555444
LeftLeg -5.449520 -0.000000 0.000000
LeftFoot -20.458708 25.145605 -12.699564
LeftToeBase 25.419726 -0.000000 -0.000000
RightUpLeg 8.063221 -14.574352 -5.278417
RightLeg -2.132298 -0.000000 0.000000
RightFoot -20.660904 -23.277642 16.634542
RightToeBase 26.210557 -0.000000 -0.000000
1460
root 19.786261 35.303462 -22.130520 -180.164787 -0.876900 -179.307643
Spine -9.548283 2.739522 0.253954
Head 6.293825 -3.262428 -2.221915
LeftShoulder -12.903934 -32.365844 21.469620
LeftArm 1.184305 1.863318 -5.356026
LeftForeArm 13.308066 -0.000000 -1.660858
LeftHand -9.370576 -0.000000 -0.659033
LeftHandThumb1 -26.253704 0.000000 33.147579
RightShoulder -11.707725 -1.535947 -14.909051
RightArm -0.681019 37.126866 8.307693
RightForeArm -35.615473 -0.000000 5.275010
RightHand -8.601982 -0.000000 4.650219
RightHandThumb1 -24.326973 -0.000000 -32.862282
LeftUpLeg 10.036135 6.680576 4.601287
LeftLeg -5.444969 -0.000000 0.000000
LeftFoot -20.475948 25.144826 -12.690453
LeftToeBase 25.372401 -0.000000 -0.000000
RightUpLeg 8.169102 -14.524991 -5.260819
RightLeg -2.203248 -0.000000 0.000000
RightFoot -20.640430 -23.295093 16.605357
RightToeBase 26.149942 -0.000000 -0.000000
1461
root 19.797814 35.299709 -22.151889 -180.205061 -0.862736 -179.297046
Spine -9.513735 2.746807 0.248787
Head 6.321328 -3.252370 -2.265293
LeftShoulder -12.914641 -32.314292 21.459416
LeftArm 1.258642 1.832458 -5.358061
LeftForeArm 13.330371 -0.000000 -1.679126
LeftHand -9.421397 -0.000000 -0.592087
LeftHandThumb1 -26.253704 0.000000 33.147579
RightShoulder -11.684683 -1.563871 -14.894619
RightArm -0.657522 37.212230 8.323807
RightForeArm -35.634457 -0.000000 5.277035
RightHand -8.619771 -0.000000 4.710991
RightHandThumb1 -24.326973 -0.000000 -32.862282
LeftUpLeg 10.107761 6.679847 4.641051
LeftLeg -5.428922 -0.000000 0.000000
LeftFoot -20.514335 25.143630 -12.692061
LeftToeBase 25.399982 -0.000000 -0.000000
RightUpLeg 8.280083 -14.515119 -5.251349
RightLeg -2.274121 -0.000000 0.000000
RightFoot -20.648755 -23.298751 16.590446
RightToeBase 26.181751 -0.000000 -0.000000
1462
root 19.811356 35.296109 -22.173016 -180.249367 -0.853284 -179.288804
Spine -9.478662 2.743111 0.230382
Head 6.369511 -3.246084 -2.287531
LeftShoulder -12.905467 -32.266107 21.462176
LeftArm 1.305276 1.841749 -5.369255
LeftForeArm 13.360704 0.000000 -1.686167
LeftHand -9.523281 -0.000000 -0.578945
LeftHandThumb1 -26.253704 0.000000 33.147579
RightShoulder -11.658377 -1.591164 -14.866758
RightArm -0.630416 37.308396 8.337763
RightForeArm -35.634141 -0.000000 5.264002
RightHand -8.696302 -0.000000 4.756056
RightHandThumb1 -24.326973 -0.000000 -32.862282
LeftUpLeg 10.182796 6.683717 4.681152
LeftLeg -5.417954 -0.000000 0.000000
LeftFoot -20.548208 25.149064 -12.706577
LeftToeBase 25.397790 -0.000000 -0.000000
RightUpLeg 8.394645 -14.457861 -5.236695
RightLeg -2.348187 -0.000000 0.000000
RightFoot -20.689907 -23.345372 16.602670
RightToeBase 26.234876 -0.000000 -0.000000
1463
root 19.825701 35.292780 -22.194568 -180.304991 -0.826974 -179.273065
Spine -9.419707 2.758381 0.221413
Head 6.381868 -3.258364 -2.305132
LeftShoulder -12.904705 -32.224538 21.476528
LeftArm 1.332545 1.805320 -5.382502
LeftForeArm 13.326868 0.000000 -1.671795
LeftHand -9.415273 0.000000 -0.604974
LeftHandThumb1 -26.253704 0.000000 33.147579
RightShoulder -11.664366 -1.630499 -14.851160
RightArm -0.572705 37.346533 8.395391
RightForeArm -35.612261 -0.000000 5.242632
RightHand -8.707944 -0.000000 4.793609
RightHandThumb1 -24.326973 -0.000000 -32.862282
LeftUpLeg 10.278012 6.681603 4.729326
LeftLeg -5.415410 -0.000000 0.000000
LeftFoot -20.601938 25.162070 -12.738336
LeftToeBase 25.443012 -0.000000 -0.000000
RightUpLeg 8.510441 -14.385233 -5.212750
RightLeg -2.405768 -0.000000 0.000000
RightFoot -20.712175 -23.400153 16.589263
RightToeBase 26.254006 -0.000000 -0.000000
